<svg xmlns="http://www.w3.org/2000/svg" width="512" height="512" viewBox="0 0 512 512">
  <defs>
    <linearGradient id="g2" x1="0%" y1="0%" x2="100%" y2="100%">
      <stop offset="0%" stop-color="#ff4d6d" />
      <stop offset="50%" stop-color="#ff8fab" />
      <stop offset="100%" stop-color="#ffe5ec" />
    </linearGradient>
  </defs>
  <rect x="0" y="0" width="512" height="512" rx="96" fill="url(#g2)" />
  <path
    d="M256 392s-92-53-137-108C98 260 92 238 92 218c0-32 20-76 70-76 44 0 70 38 74 48 4-10 30-48 74-48 50 0 70 44 70 76 0 20-6 42-27 66-45 55-137 108-137 108Z"
    fill="#fff"
  />
  <text
    x="50%"
    y="72%"
    text-anchor="middle"
    font-family="system-ui, -apple-system, BlinkMacSystemFont, 'Segoe UI', sans-serif"
    font-size="54"
    fill="#b2185c"
  >
    3 Anos
  </text>
  <text
    x="50%"
    y="84%"
    text-anchor="middle"
    font-family="system-ui, -apple-system, BlinkMacSystemFont, 'Segoe UI', sans-serif"
    font-size="40"
    fill="#b2185c"
  >
    =œ
  </text>
</svg>

