<svg xmlns="http://www.w3.org/2000/svg" width="192" height="192" viewBox="0 0 192 192">
  <defs>
    <linearGradient id="g1" x1="0%" y1="0%" x2="100%" y2="100%">
      <stop offset="0%" stop-color="#ff4d6d" />
      <stop offset="50%" stop-color="#ff8fab" />
      <stop offset="100%" stop-color="#ffe5ec" />
    </linearGradient>
  </defs>
  <rect x="0" y="0" width="192" height="192" rx="40" fill="url(#g1)" />
  <path
    d="M96 144s-34-19.6-50.4-40C34 92 32 84 32 76c0-12 8-28 26-28 16 0 26 14 28 18 2-4 12-18 28-18 18 0 26 16 26 28 0 8-2 16-13.6 28-16.4 20.4-50.4 40-50.4 40Z"
    fill="#fff"
  />
  <text
    x="50%"
    y="77%"
    text-anchor="middle"
    font-family="system-ui, -apple-system, BlinkMacSystemFont, 'Segoe UI', sans-serif"
    font-size="22"
    fill="#b2185c"
  >
    3 Anos
  </text>
</svg>

